<svg width="242" height="116" viewBox="0 0 242 116" fill="none" xmlns="http://www.w3.org/2000/svg">
<g clip-path="url(#clip0_54_1584)">
<path d="M78.2221 76.8771H2.44434V116.002H78.2221V76.8771Z" fill="#F5F5F5"/>
<path d="M239.556 87.2673H163.778V116H239.556V87.2673Z" fill="#F5F5F5"/>
<path d="M163.778 58.8384H78.2222V115.998H163.778V58.8384Z" fill="#F5F5F5"/>
<path d="M78.2222 72.2914H0V75.348H78.2222V72.2914Z" fill="#F5F5F5"/>
<path d="M242 83.5972H163.778V86.6538H242V83.5972Z" fill="#F5F5F5"/>
<path d="M104.256 48.4747C104.323 47.9598 104.575 47.4871 104.966 47.1446C105.356 46.8021 105.857 46.6132 106.376 46.6132H135.93C136.449 46.6132 136.95 46.8021 137.34 47.1446C137.73 47.4871 137.983 47.9598 138.05 48.4747L139.016 55.8106C139.055 56.113 139.03 56.4204 138.941 56.7121C138.852 57.0039 138.702 57.2733 138.501 57.5022C138.299 57.7312 138.051 57.9144 137.773 58.0397C137.495 58.1649 137.194 58.2293 136.889 58.2284H105.417C105.112 58.2284 104.812 58.1634 104.534 58.0378C104.257 57.9122 104.01 57.7288 103.809 57.4999C103.608 57.2711 103.459 57.002 103.37 56.7107C103.282 56.4194 103.257 56.1125 103.296 55.8106L104.256 48.4747Z" fill="#625743"/>
<path d="M167.139 55.1726H75.4722V58.2293H167.139V55.1726Z" fill="#F5F5F5"/>
<path d="M78.2221 75.3457H2.44434V76.874H78.2221V75.3457Z" fill="#D8D8D8"/>
<path d="M239.556 86.6555H163.778V88.1838H239.556V86.6555Z" fill="url(#paint0_linear_54_1584)"/>
<path d="M163.778 58.2308H78.2222V60.9818H163.778V58.2308Z" fill="url(#paint1_linear_54_1584)"/>
<path d="M69.9722 116.002L77.6111 76.8771H78.2222V116.002H69.9722Z" fill="url(#paint2_linear_54_1584)"/>
<path d="M129.25 49.6715H113.361V53.3395H129.25V49.6715Z" fill="url(#paint3_linear_54_1584)"/>
<path d="M107.556 46.6148H135.208C134.747 45.8141 134.444 44.932 134.316 44.0166C130.213 44.2122 125.923 44.3223 121.458 44.3223C116.994 44.3223 112.759 44.2122 108.677 44.0166C108.599 44.4351 108.479 44.8447 108.32 45.2393C108.122 45.7272 107.865 46.1891 107.556 46.6148Z" fill="url(#paint4_linear_54_1584)"/>
<path d="M110.153 44.3224H132.764C132.637 44.0255 132.535 43.7188 132.458 43.4054C132.33 42.8807 132.277 42.3404 132.3 41.8007H110.523C110.523 42.1063 110.498 42.4395 110.458 42.7941C110.398 43.311 110.296 43.8221 110.153 44.3224Z" fill="url(#paint5_linear_54_1584)"/>
<path d="M112.597 41.947C115.433 42.0968 118.436 42.1854 121.59 42.1824C124.645 42.1824 127.56 42.0937 130.319 41.947V40.0672C127.493 40.22 124.489 40.3087 121.327 40.3025C118.271 40.3025 115.353 40.2017 112.606 40.0427L112.597 41.947Z" fill="url(#paint6_linear_54_1584)"/>
<path d="M126.653 39.1267C125.572 35.4563 125.057 31.6427 125.125 27.8171H117.18C117.199 31.621 116.789 35.4148 115.958 39.1267H126.653Z" fill="url(#paint7_linear_54_1584)"/>
<path d="M115.347 40.179C117.447 40.4143 122.015 40.4143 122.015 40.4143C124.251 40.4143 126.384 40.3287 128.404 40.1851L128.489 40.0873C128.477 39.7445 128.371 39.4117 128.184 39.1244C127.359 37.9018 125.351 38.4947 121.822 38.5345C121.052 38.5345 117.083 38.348 116.915 38.348C116.127 38.348 114.987 38.3633 114.434 39.1244C114.246 39.3942 114.14 39.7127 114.128 40.0414H114.211L115.347 40.179Z" fill="url(#paint8_linear_54_1584)"/>
<path d="M114.125 40.0427V40.1222L115.274 40.1742L114.125 40.0427Z" fill="url(#paint9_linear_54_1584)"/>
<path opacity="0.4" d="M125.125 28.1228C123.811 28.3256 122.483 28.4278 121.153 28.4285C119.823 28.4284 118.495 28.3262 117.181 28.1228V27.8171H125.125V28.1228Z" fill="#8C6239"/>
<path d="M125.431 27.9669C124.025 28.2725 122.591 28.4262 121.153 28.4254C119.715 28.425 118.281 28.2713 116.875 27.9669V26.2858H125.431V27.9669Z" fill="url(#paint10_linear_54_1584)"/>
<path opacity="0.4" d="M125.431 26.8971C122.637 27.7122 119.669 27.7122 116.875 26.8971V26.2858H125.431V26.8971Z" fill="#8C6239"/>
<path d="M125.736 26.7479C122.765 27.7668 119.54 27.7668 116.569 26.7479V25.0668H125.736V26.7479Z" fill="url(#paint11_linear_54_1584)"/>
<path d="M130.014 6.41601L137.347 5.27282C137.797 5.19508 138.26 5.24922 138.679 5.42871C139.014 5.56462 139.296 5.80332 139.486 6.11034C139.865 6.76141 139.617 7.55003 139.486 7.94433C139.009 9.38402 137.909 12.5782 136.363 16.8453C136.202 17.2913 135.917 17.6823 135.542 17.9729C135.167 18.2634 134.718 18.4416 134.246 18.4867L126.262 19.254H125.736L127.264 16.503L127.536 16.4663L127.679 16.451L133.262 16.02C133.75 15.9819 134.215 15.8019 134.602 15.502C134.989 15.2022 135.279 14.7957 135.437 14.3327L137.5 8.35393C137.549 8.21294 137.585 8.06761 137.607 7.91988C137.677 7.45833 137.674 6.98454 137.362 6.72167C137.247 6.63377 137.115 6.56983 136.974 6.53361C136.834 6.4974 136.687 6.48963 136.544 6.51076L130.995 7.47667C130.594 7.54697 130.261 7.60199 130.029 7.63867" fill="url(#paint12_linear_54_1584)"/>
<path d="M112.71 6.41595L105.377 5.27276C104.926 5.19512 104.463 5.24925 104.042 5.42865C103.708 5.56456 103.427 5.80334 103.238 6.11028C102.859 6.76135 103.107 7.54997 103.238 7.94427C103.712 9.38396 104.815 12.5782 106.361 16.8453C106.522 17.2906 106.805 17.6812 107.179 17.9717C107.553 18.2623 108.001 18.4408 108.472 18.4867L116.46 19.2539H116.988L115.46 16.5029L115.188 16.4662L115.042 16.4509L109.462 16.02C108.975 15.9819 108.509 15.8018 108.122 15.502C107.736 15.2021 107.445 14.7957 107.287 14.3327L105.237 8.35387C105.19 8.21205 105.154 8.06696 105.13 7.91982C105.059 7.45827 105.062 6.98449 105.377 6.72161C105.492 6.63364 105.623 6.56965 105.764 6.53342C105.904 6.49719 106.05 6.48947 106.193 6.5107L111.742 7.47661L112.71 7.63861" fill="url(#paint13_linear_54_1584)"/>
<path d="M116.615 26.2903H125.736C126.856 24.9727 127.878 23.574 128.792 22.1057L128.99 21.7817C132.278 16.3745 133.852 9.3778 133.852 9.3778C134.035 8.56168 134.836 3.03525 134.903 1.53137H108.014C108.188 6.42202 109.157 14.2287 113.514 21.7572C114.432 23.3442 115.469 24.8595 116.615 26.2903Z" fill="url(#paint14_linear_54_1584)"/>
<path opacity="0.4" d="M134.799 3.05506C131.389 2.70049 128.578 2.53237 126.653 2.44373C121.153 2.19003 97.3195 2.44373 113.819 1.8324C116.325 1.7407 109.309 1.17522 108.014 0.915405H134.903V1.52674" fill="#8C6239"/>
<path d="M135.514 0H107.403C107.234 0 107.097 0.136851 107.097 0.305665V1.83399C107.097 2.00281 107.234 2.13966 107.403 2.13966H135.514C135.683 2.13966 135.819 2.00281 135.819 1.83399V0.305665C135.819 0.136851 135.683 0 135.514 0Z" fill="url(#paint15_linear_54_1584)"/>
<path d="M129.397 21.0909L130.802 18.3154L129.397 21.0909Z" fill="url(#paint16_linear_54_1584)"/>
<path d="M185.063 73.6922C185.131 73.1779 185.384 72.7059 185.774 72.364C186.164 72.0221 186.665 71.8337 187.183 71.8337H216.737C217.256 71.8338 217.757 72.0227 218.147 72.3652C218.537 72.7076 218.79 73.1804 218.857 73.6952L219.823 81.0312C219.862 81.3331 219.837 81.6399 219.749 81.9312C219.66 82.2226 219.511 82.4916 219.31 82.7205C219.109 82.9493 218.862 83.1327 218.585 83.2584C218.307 83.384 218.007 83.449 217.702 83.449H186.23C185.926 83.449 185.625 83.384 185.348 83.2584C185.07 83.1327 184.823 82.9493 184.622 82.7205C184.422 82.4916 184.272 82.2226 184.184 81.9312C184.095 81.6399 184.07 81.3331 184.109 81.0312L185.063 73.6922Z" fill="#625743"/>
<path d="M210.057 74.8834H194.168V78.5514H210.057V74.8834Z" fill="url(#paint17_linear_54_1584)"/>
<path d="M188.36 71.8312H216.028C215.776 71.3959 215.571 70.9348 215.417 70.4557C215.288 70.0568 215.193 69.6478 215.133 69.233C211.029 69.4317 206.739 69.5387 202.278 69.5387C197.817 69.5387 193.576 69.4287 189.497 69.233C189.418 69.6515 189.299 70.0611 189.139 70.4557C188.938 70.945 188.676 71.4072 188.36 71.8312Z" fill="url(#paint18_linear_54_1584)"/>
<path d="M190.972 69.5387H213.583C213.455 69.2425 213.353 68.9357 213.278 68.6217C213.149 68.097 213.096 67.5567 213.119 67.017H191.327C191.323 67.3489 191.303 67.6805 191.266 68.0104C191.21 68.527 191.112 69.0382 190.972 69.5387Z" fill="url(#paint19_linear_54_1584)"/>
<path d="M193.417 67.1621C196.252 67.3119 199.256 67.3975 202.409 67.3944C205.465 67.3944 208.38 67.3058 211.139 67.1621V65.2792C208.31 65.4351 205.306 65.5237 202.143 65.5146C199.088 65.5146 196.17 65.4137 193.426 65.2548L193.417 67.1621Z" fill="url(#paint20_linear_54_1584)"/>
<path d="M207.472 64.3388C206.913 62.4381 206.504 60.4962 206.25 58.5312C206.012 56.7073 205.91 54.8682 205.944 53.0292H198C198.019 56.833 197.609 60.6268 196.778 64.3388H207.472Z" fill="url(#paint21_linear_54_1584)"/>
<path d="M196.167 65.4133C198.266 65.6456 202.834 65.6456 202.834 65.6456C205.068 65.6456 207.2 65.5601 209.223 65.4164L209.309 65.3186C209.296 64.9759 209.19 64.643 209.003 64.3557C208.178 63.1514 206.171 63.7291 202.641 63.7658C201.871 63.7658 197.899 63.5824 197.734 63.5824C196.946 63.5824 195.806 63.5824 195.253 64.3557C195.065 64.6258 194.959 64.9441 194.948 65.2727H195.03L196.167 65.4133Z" fill="url(#paint22_linear_54_1584)"/>
<path d="M194.932 65.2589V65.3384L196.081 65.3903L194.932 65.2589Z" fill="url(#paint23_linear_54_1584)"/>
<path opacity="0.4" d="M205.944 53.3348C203.312 53.7424 200.632 53.7424 198 53.3348V53.0292H205.944V53.3348Z" fill="#8C6239"/>
<path d="M206.25 53.1835C203.431 53.7948 200.513 53.7948 197.694 53.1835V51.5023H206.25V53.1835Z" fill="url(#paint24_linear_54_1584)"/>
<path opacity="0.4" d="M206.25 52.1135C203.456 52.9286 200.488 52.9286 197.694 52.1135V51.5022H206.25V52.1135Z" fill="#8C6239"/>
<path d="M206.556 51.9601C203.585 52.979 200.36 52.979 197.389 51.9601V50.2789H206.556V51.9601Z" fill="url(#paint25_linear_54_1584)"/>
<path d="M210.833 31.6325L218.167 30.4893C218.618 30.4115 219.081 30.4656 219.502 30.6452C219.835 30.7829 220.117 31.0212 220.309 31.3268C220.688 31.9809 220.44 32.7665 220.309 33.1608C219.832 34.6005 218.729 37.7978 217.183 42.0648C217.022 42.5104 216.737 42.9011 216.363 43.1916C215.989 43.4822 215.54 43.6606 215.068 43.7063L207.084 44.4704H206.556L208.083 41.7194L208.352 41.6828L208.499 41.6675L214.078 41.2365C214.566 41.1994 215.032 41.0201 215.419 40.7207C215.805 40.4214 216.096 40.0151 216.254 39.5523L218.304 33.5704C218.354 33.4305 218.389 33.2861 218.411 33.1394C218.481 32.6779 218.478 32.201 218.167 31.9382C218.051 31.8511 217.919 31.7879 217.778 31.7522C217.638 31.7165 217.491 31.7091 217.348 31.7303C212.731 32.5281 212.306 32.6076 211.799 32.6931C211.399 32.7634 211.063 32.8185 210.833 32.8551" fill="url(#paint26_linear_54_1584)"/>
<path d="M210.833 31.6325L218.167 30.4893C218.618 30.4115 219.081 30.4656 219.502 30.6452C219.835 30.7829 220.117 31.0212 220.309 31.3268C220.688 31.9809 220.44 32.7665 220.309 33.1608C219.832 34.6005 218.729 37.7978 217.183 42.0648C217.022 42.5104 216.737 42.9011 216.363 43.1916C215.989 43.4822 215.54 43.6606 215.068 43.7063L207.084 44.4704H206.556L208.083 41.7194L208.352 41.6828L208.499 41.6675L214.078 41.2365C214.566 41.1994 215.032 41.0201 215.419 40.7207C215.805 40.4214 216.096 40.0151 216.254 39.5523L218.304 33.5704C218.354 33.4305 218.389 33.2861 218.411 33.1394C218.481 32.6779 218.478 32.201 218.167 31.9382C218.051 31.8511 217.919 31.7879 217.778 31.7522C217.638 31.7165 217.491 31.7091 217.348 31.7303C212.731 32.5281 212.306 32.6076 211.799 32.6931C211.399 32.7634 211.063 32.8185 210.833 32.8551" stroke="url(#paint27_linear_54_1584)" stroke-miterlimit="10"/>
<path d="M193.514 31.6325L186.181 30.4893C185.73 30.4115 185.267 30.4656 184.846 30.6452C184.512 30.7829 184.23 31.0212 184.039 31.3268C183.66 31.9809 183.911 32.7665 184.039 33.1608C184.516 34.6005 185.619 37.7978 187.165 42.0648C187.326 42.5104 187.61 42.9011 187.985 43.1916C188.359 43.4822 188.808 43.6606 189.279 43.7063L197.263 44.4704H197.789L196.261 41.7194L195.992 41.6828L195.846 41.6675L190.266 41.2365C189.779 41.1994 189.313 41.0201 188.926 40.7207C188.539 40.4214 188.249 40.0151 188.091 39.5523L186.04 33.5704C185.991 33.4305 185.955 33.2861 185.934 33.1394C185.863 32.6779 185.866 32.201 186.178 31.9382C186.294 31.8511 186.426 31.7879 186.567 31.7522C186.707 31.7165 186.853 31.7091 186.997 31.7303C191.614 32.5281 192.038 32.6076 192.546 32.6931C192.946 32.7634 193.282 32.8185 193.511 32.8551" fill="url(#paint28_linear_54_1584)"/>
<path d="M197.422 51.5023H206.555C207.674 50.1832 208.695 48.7847 209.611 47.3177L209.81 46.9968C213.094 41.5865 214.671 34.5929 214.671 34.5929C214.854 33.7676 215.655 28.2473 215.722 26.7434H188.833C189.007 31.6493 189.976 39.4438 194.333 46.9693C195.245 48.5574 196.278 50.0729 197.422 51.5023Z" fill="url(#paint29_linear_54_1584)"/>
<path d="M201.556 42.2222C200.926 42.2222 200.344 42.0852 199.811 41.8111C199.285 41.5296 198.859 41.163 198.533 40.7111L199.544 38.7222C199.663 39.1889 199.904 39.5889 200.267 39.9222C200.637 40.2556 201.074 40.4222 201.578 40.4222C201.919 40.4222 202.222 40.3444 202.489 40.1889C202.763 40.0333 202.978 39.8222 203.133 39.5556C203.296 39.2889 203.378 38.9889 203.378 38.6556C203.378 38.3296 203.3 38.037 203.144 37.7778C202.996 37.5111 202.781 37.3 202.5 37.1444C202.226 36.9889 201.904 36.9111 201.533 36.9111C201.311 36.9111 201.1 36.9407 200.9 37C200.7 37.0519 200.493 37.1333 200.278 37.2444L202.078 33.7333H199.2V32H204.933L203.033 35.5444C203.463 35.7 203.844 35.9333 204.178 36.2444C204.511 36.5481 204.774 36.9111 204.967 37.3333C205.167 37.7556 205.267 38.2148 205.267 38.7111C205.267 39.3704 205.096 39.9667 204.756 40.5C204.415 41.0333 203.963 41.4556 203.4 41.7667C202.837 42.0704 202.222 42.2222 201.556 42.2222Z" fill="white"/>
<path opacity="0.4" d="M215.606 28.2621C212.187 27.9167 209.382 27.7486 207.46 27.6508C201.96 27.4001 178.127 27.6508 194.627 27.0394C197.132 26.9477 190.117 26.3853 188.821 26.1224H215.71V26.7338" fill="#8C6239"/>
<path d="M216.321 25.2119H188.21C188.041 25.2119 187.905 25.3488 187.905 25.5176V27.0459C187.905 27.2147 188.041 27.3516 188.21 27.3516H216.321C216.49 27.3516 216.627 27.2147 216.627 27.0459V25.5176C216.627 25.3488 216.49 25.2119 216.321 25.2119Z" fill="url(#paint30_linear_54_1584)"/>
<path d="M210.201 46.3085L211.61 43.5361L210.201 46.3085Z" fill="url(#paint31_linear_54_1584)"/>
<path d="M21.1352 62.8837C21.2027 62.3689 21.455 61.8961 21.8452 61.5536C22.2353 61.2111 22.7367 61.0223 23.2558 61.0222H52.8091C53.3282 61.0223 53.8295 61.2111 54.2197 61.5536C54.6098 61.8961 54.8622 62.3689 54.9296 62.8837L55.8952 70.2197C55.9348 70.5216 55.9095 70.8284 55.821 71.1197C55.7326 71.411 55.583 71.6801 55.3823 71.909C55.1815 72.1378 54.9343 72.3212 54.6571 72.4468C54.3798 72.5725 54.079 72.6375 53.7747 72.6375H22.3055C21.9996 72.6401 21.6967 72.577 21.4173 72.4525C21.1378 72.3281 20.8883 72.1451 20.6856 71.9159C20.4828 71.6867 20.3316 71.4167 20.2421 71.1241C20.1526 70.8315 20.1268 70.5231 20.1666 70.2197L21.1352 62.8837Z" fill="#625743"/>
<path d="M46.1296 64.0764H30.2407V67.7444H46.1296V64.0764Z" fill="url(#paint32_linear_54_1584)"/>
<path d="M24.4443 61.0198H52.1002C51.8483 60.5842 51.6435 60.1231 51.4891 59.6443C51.3602 59.2454 51.2651 58.8364 51.2049 58.4216C47.1013 58.6173 42.8113 58.7273 38.3502 58.7273C33.8891 58.7273 29.6479 58.6173 25.5688 58.4216C25.4907 58.8401 25.3709 59.2497 25.2113 59.6443C25.0126 60.1323 24.7551 60.5943 24.4443 61.0198Z" fill="url(#paint33_linear_54_1584)"/>
<path d="M27.0325 58.7274H49.6436C49.5157 58.4311 49.4135 58.1243 49.338 57.8104C49.2096 57.2857 49.1561 56.7454 49.1791 56.2057H27.3991C27.3956 56.5376 27.3752 56.8692 27.338 57.1991C27.2782 57.7161 27.176 58.2272 27.0325 58.7274Z" fill="url(#paint34_linear_54_1584)"/>
<path d="M29.4771 56.3517C32.3126 56.5045 35.3162 56.5901 38.4696 56.587C41.5251 56.587 44.4401 56.4984 47.1993 56.3517V54.4718C44.3698 54.6277 41.3662 54.7133 38.2068 54.7072C35.1512 54.7072 32.2332 54.6063 29.4862 54.4474L29.4771 56.3517Z" fill="url(#paint35_linear_54_1584)"/>
<path d="M43.5326 53.5318C42.4524 49.8614 41.9372 46.0478 42.0048 42.2222H34.0604C34.0696 44.1623 33.9676 46.1014 33.7548 48.0298C33.5505 49.8793 33.2445 51.716 32.8381 53.5318H43.5326Z" fill="url(#paint36_linear_54_1584)"/>
<path d="M32.227 54.5852C34.3261 54.8206 38.8942 54.8206 38.8942 54.8206C41.1309 54.8206 43.2636 54.735 45.2834 54.5913L45.3689 54.4935C45.3562 54.1508 45.2506 53.818 45.0634 53.5307C44.2384 52.3263 42.2309 52.9193 38.7017 52.9407C37.9317 52.9407 33.9595 52.7573 33.7945 52.7573C33.0061 52.7573 31.8664 52.7726 31.3134 53.5307C31.1257 53.8007 31.0197 54.119 31.0078 54.4477H31.0903L32.227 54.5852Z" fill="url(#paint37_linear_54_1584)"/>
<path d="M31.0046 54.4474V54.5269L32.1535 54.5788L31.0046 54.4474Z" fill="url(#paint38_linear_54_1584)"/>
<path opacity="0.4" d="M42.0048 42.5278C40.6906 42.7322 39.3625 42.8344 38.0325 42.8335C36.7026 42.8334 35.3746 42.7312 34.0603 42.5278V42.2222H42.0048V42.5278Z" fill="#4D4D4D"/>
<path d="M42.3102 42.372C39.4911 42.9833 36.5737 42.9833 33.7546 42.372V40.6908H42.3102V42.372Z" fill="url(#paint39_linear_54_1584)"/>
<path opacity="0.4" d="M42.3102 41.3021C39.5165 42.1172 36.5483 42.1172 33.7546 41.3021V40.6908H42.3102V41.3021Z" fill="#4D4D4D"/>
<path d="M42.6159 41.1486C39.6452 42.1675 36.4199 42.1675 33.4492 41.1486V39.4674H42.6159V41.1486Z" fill="url(#paint40_linear_54_1584)"/>
<path d="M46.8936 20.8251L54.227 19.6819C54.6778 19.6041 55.1414 19.6582 55.5622 19.8378C55.8961 19.9745 56.1784 20.213 56.3689 20.5194C56.7478 21.1736 56.5003 21.9591 56.3689 22.3534C55.8922 23.7931 54.7892 26.9904 53.2431 31.2575C53.0811 31.7026 52.7967 32.093 52.4226 32.3834C52.0485 32.6738 51.5999 32.8525 51.1286 32.8989L43.1445 33.6631H42.6189L44.1467 30.9121L44.4156 30.8754L44.5622 30.8601L50.1447 30.4291C50.633 30.3897 51.099 30.2081 51.4851 29.9065C51.8712 29.605 52.1605 29.1969 52.3172 28.7327L54.3645 22.7539C54.414 22.613 54.4499 22.4676 54.4714 22.3198C54.5417 21.8583 54.5386 21.3845 54.227 21.1216C54.1114 21.0337 53.9794 20.9698 53.8388 20.9335C53.6982 20.8973 53.5517 20.8896 53.4081 20.9107L47.8592 21.8858C47.4589 21.9561 47.1258 22.0111 46.8936 22.0478" fill="url(#paint41_linear_54_1584)"/>
<path d="M46.8936 20.8251L54.227 19.6819C54.6778 19.6041 55.1414 19.6582 55.5622 19.8378C55.8961 19.9745 56.1784 20.213 56.3689 20.5194C56.7478 21.1736 56.5003 21.9591 56.3689 22.3534C55.8922 23.7931 54.7892 26.9904 53.2431 31.2575C53.0811 31.7026 52.7967 32.093 52.4226 32.3834C52.0485 32.6738 51.5999 32.8525 51.1286 32.8989L43.1445 33.6631H42.6189L44.1467 30.9121L44.4156 30.8754L44.5622 30.8601L50.1447 30.4291C50.633 30.3897 51.099 30.2081 51.4851 29.9065C51.8712 29.605 52.1605 29.1969 52.3172 28.7327L54.3645 22.7539C54.414 22.613 54.4499 22.4676 54.4714 22.3198C54.5417 21.8583 54.5386 21.3845 54.227 21.1216C54.1114 21.0337 53.9794 20.9698 53.8388 20.9335C53.6982 20.8973 53.5517 20.8896 53.4081 20.9107L47.8592 21.8858C47.4589 21.9561 47.1258 22.0111 46.8936 22.0478" stroke="url(#paint42_linear_54_1584)" stroke-miterlimit="10"/>
<path d="M29.587 20.8251L22.2537 19.6819C21.8028 19.6041 21.3392 19.6582 20.9184 19.8378C20.5845 19.9745 20.3022 20.213 20.1117 20.5194C19.7359 21.1736 19.9834 21.9591 20.1117 22.3534C20.5914 23.7931 21.6945 26.9904 23.2406 31.2575C23.403 31.7035 23.6883 32.0944 24.0636 32.3849C24.4389 32.6754 24.8888 32.8536 25.3612 32.8989L33.3453 33.6631H33.8709L32.3431 30.9121L32.0834 30.8723L31.9367 30.857L26.342 30.4291C25.8531 30.3907 25.3862 30.2094 24.9995 29.9078C24.6127 29.6062 24.323 29.1976 24.1664 28.7327L22.1162 22.763C22.0634 22.6225 22.0246 22.4771 22 22.329C21.9298 21.8674 21.9328 21.3936 22.2445 21.1308C22.3601 21.0429 22.4921 20.9789 22.6327 20.9427C22.7733 20.9065 22.9197 20.8987 23.0634 20.9199L28.6214 21.8858L29.587 22.0478" fill="url(#paint43_linear_54_1584)"/>
<path d="M33.4951 40.6909H42.6159C43.7352 39.3726 44.7565 37.974 45.6715 36.5063C45.7234 36.4238 45.7906 36.3168 45.8701 36.2007C49.1548 30.7751 50.7223 23.7815 50.7223 23.7815C50.9056 22.9562 51.7062 17.4359 51.7734 15.932H24.8845C25.0587 20.8379 26.0273 28.6293 30.3845 36.1579C31.3032 37.7467 32.3432 39.2622 33.4951 40.6909Z" fill="url(#paint44_linear_54_1584)"/>
<path opacity="0.4" d="M51.6786 17.4552C48.2594 17.1098 45.4544 16.9417 43.5324 16.8439C38.0324 16.5902 14.1991 16.8439 30.6991 16.2325C33.2047 16.1408 26.1891 15.5784 24.8936 15.3156H51.7824V15.9269" fill="#4D4D4D"/>
<path d="M52.3937 14.405H24.2826C24.1139 14.405 23.9771 14.5419 23.9771 14.7107V16.239C23.9771 16.4078 24.1139 16.5447 24.2826 16.5447H52.3937C52.5625 16.5447 52.6993 16.4078 52.6993 16.239V14.7107C52.6993 14.5419 52.5625 14.405 52.3937 14.405Z" fill="url(#paint45_linear_54_1584)"/>
<path d="M46.2734 35.4955L47.6821 32.7201L46.2734 35.4955Z" fill="url(#paint46_linear_54_1584)"/>
<path d="M118.667 18V16.4H120.778V10.4667L118.667 11.5333V9.64444L122.667 7.64444V16.4H124.333V18H118.667Z" fill="white"/>
<path d="M34.9556 30L39.0222 24.0333C39.1926 23.7741 39.3074 23.563 39.3667 23.4C39.4259 23.2296 39.4556 23.0741 39.4556 22.9333C39.4556 22.5556 39.3222 22.237 39.0556 21.9778C38.7889 21.7111 38.4593 21.5778 38.0667 21.5778C37.6741 21.5778 37.3444 21.7111 37.0778 21.9778C36.8185 22.237 36.6889 22.5556 36.6889 22.9333C36.6889 23.437 36.9074 23.8741 37.3444 24.2444H35.1667C34.937 23.8296 34.8222 23.3889 34.8222 22.9222C34.8222 22.3593 34.963 21.8407 35.2444 21.3667C35.5333 20.8926 35.9222 20.5111 36.4111 20.2222C36.9074 19.9259 37.463 19.7778 38.0778 19.7778C38.6778 19.7778 39.2296 19.9222 39.7333 20.2111C40.237 20.4926 40.637 20.8704 40.9333 21.3444C41.237 21.8185 41.3889 22.3481 41.3889 22.9333C41.3889 23.2889 41.3222 23.6296 41.1889 23.9556C41.063 24.2741 40.8593 24.6296 40.5778 25.0222L38.3222 28.2H41.5111V30H34.9556Z" fill="white"/>
</g>
<defs>
<linearGradient id="paint0_linear_54_1584" x1="174.106" y1="84.0696" x2="201.759" y2="87.4296" gradientUnits="userSpaceOnUse">
<stop stop-color="#D6D6D6"/>
<stop offset="1" stop-color="#CBCACA"/>
</linearGradient>
<linearGradient id="paint1_linear_54_1584" x1="112.2" y1="59.0194" x2="144.476" y2="61.1698" gradientUnits="userSpaceOnUse">
<stop stop-color="#D8D8D8"/>
<stop offset="1" stop-color="#B9B8B8"/>
</linearGradient>
<linearGradient id="paint2_linear_54_1584" x1="74.0972" y1="76.8771" x2="74.0972" y2="116.002" gradientUnits="userSpaceOnUse">
<stop stop-color="#D8D8D8"/>
<stop offset="1" stop-color="#BEBDBD"/>
</linearGradient>
<linearGradient id="paint3_linear_54_1584" x1="113.361" y1="51.5055" x2="129.25" y2="51.5055" gradientUnits="userSpaceOnUse">
<stop stop-color="#D19F1F"/>
<stop offset="1" stop-color="#FFDB7E"/>
</linearGradient>
<linearGradient id="paint4_linear_54_1584" x1="107.553" y1="45.3157" x2="135.208" y2="45.3157" gradientUnits="userSpaceOnUse">
<stop stop-color="#D2A122"/>
<stop offset="1" stop-color="#FDD800"/>
</linearGradient>
<linearGradient id="paint5_linear_54_1584" x1="8261.47" y1="397.063" x2="9934.69" y2="397.063" gradientUnits="userSpaceOnUse">
<stop stop-color="#D2A122"/>
<stop offset="1" stop-color="#FDD800"/>
</linearGradient>
<linearGradient id="paint6_linear_54_1584" x1="6643.24" y1="327.837" x2="7671.12" y2="327.837" gradientUnits="userSpaceOnUse">
<stop stop-color="#D2A122"/>
<stop offset="1" stop-color="#FDD800"/>
</linearGradient>
<linearGradient id="paint7_linear_54_1584" x1="4174.49" y1="1266.22" x2="4548.8" y2="1266.22" gradientUnits="userSpaceOnUse">
<stop stop-color="#D2A122"/>
<stop offset="1" stop-color="#FDD800"/>
</linearGradient>
<linearGradient id="paint8_linear_54_1584" x1="5478.01" y1="304.57" x2="6153.13" y2="304.57" gradientUnits="userSpaceOnUse">
<stop stop-color="#D2A122"/>
<stop offset="1" stop-color="#FDD800"/>
</linearGradient>
<linearGradient id="paint9_linear_54_1584" x1="114.125" y1="40.11" x2="115.274" y2="40.11" gradientUnits="userSpaceOnUse">
<stop offset="1" stop-color="#FDD800"/>
</linearGradient>
<linearGradient id="paint10_linear_54_1584" x1="3389.37" y1="217.785" x2="3628.93" y2="217.785" gradientUnits="userSpaceOnUse">
<stop stop-color="#D2A122"/>
<stop offset="1" stop-color="#FDD800"/>
</linearGradient>
<linearGradient id="paint11_linear_54_1584" x1="3613.65" y1="235.365" x2="3888.65" y2="235.365" gradientUnits="userSpaceOnUse">
<stop stop-color="#D2A122"/>
<stop offset="1" stop-color="#FDD800"/>
</linearGradient>
<linearGradient id="paint12_linear_54_1584" x1="5866.8" y1="566.846" x2="6503.83" y2="566.846" gradientUnits="userSpaceOnUse">
<stop stop-color="#D2A122"/>
<stop offset="1" stop-color="#FDD800"/>
</linearGradient>
<linearGradient id="paint13_linear_54_1584" x1="-7767.33" y1="566.844" x2="-8402.77" y2="566.844" gradientUnits="userSpaceOnUse">
<stop stop-color="#D2A122"/>
<stop offset="1" stop-color="#FDD800"/>
</linearGradient>
<linearGradient id="paint14_linear_54_1584" x1="9613.22" y1="1128.06" x2="11979.4" y2="1128.06" gradientUnits="userSpaceOnUse">
<stop stop-color="#D2A122"/>
<stop offset="1" stop-color="#FDD800"/>
</linearGradient>
<linearGradient id="paint15_linear_54_1584" x1="10174.2" y1="7.4888" x2="12874.1" y2="7.4888" gradientUnits="userSpaceOnUse">
<stop stop-color="#D2A122"/>
<stop offset="1" stop-color="#FDD800"/>
</linearGradient>
<linearGradient id="paint16_linear_54_1584" x1="724.622" y1="197.221" x2="731.087" y2="197.221" gradientUnits="userSpaceOnUse">
<stop stop-color="#D2A122"/>
<stop offset="1" stop-color="#FDD800"/>
</linearGradient>
<linearGradient id="paint17_linear_54_1584" x1="5730.81" y1="1399.06" x2="6557.04" y2="1399.06" gradientUnits="userSpaceOnUse">
<stop stop-color="#D19F1F"/>
<stop offset="1" stop-color="#FFDB7E"/>
</linearGradient>
<linearGradient id="paint18_linear_54_1584" x1="188.36" y1="70.5291" x2="216.016" y2="70.5291" gradientUnits="userSpaceOnUse">
<stop stop-color="#CD7F32"/>
<stop offset="1" stop-color="#A67C52"/>
</linearGradient>
<linearGradient id="paint19_linear_54_1584" x1="14322" y1="630.296" x2="15995.2" y2="630.296" gradientUnits="userSpaceOnUse">
<stop stop-color="#CD7F32"/>
<stop offset="1" stop-color="#A67C52"/>
</linearGradient>
<linearGradient id="paint20_linear_54_1584" x1="11410.9" y1="529.554" x2="12438.8" y2="529.554" gradientUnits="userSpaceOnUse">
<stop stop-color="#CD7F32"/>
<stop offset="1" stop-color="#A67C52"/>
</linearGradient>
<linearGradient id="paint21_linear_54_1584" x1="7083.57" y1="2224.36" x2="7457.87" y2="2224.36" gradientUnits="userSpaceOnUse">
<stop stop-color="#CD7F32"/>
<stop offset="1" stop-color="#A67C52"/>
</linearGradient>
<linearGradient id="paint22_linear_54_1584" x1="9356.76" y1="499.629" x2="10031.9" y2="499.629" gradientUnits="userSpaceOnUse">
<stop stop-color="#CD7F32"/>
<stop offset="1" stop-color="#A67C52"/>
</linearGradient>
<linearGradient id="paint23_linear_54_1584" x1="927.855" y1="93.3463" x2="932.175" y2="93.3463" gradientUnits="userSpaceOnUse">
<stop offset="1" stop-color="#FDD800"/>
</linearGradient>
<linearGradient id="paint24_linear_54_1584" x1="5732.8" y1="419.506" x2="5972.36" y2="419.506" gradientUnits="userSpaceOnUse">
<stop stop-color="#CD7F32"/>
<stop offset="1" stop-color="#A67C52"/>
</linearGradient>
<linearGradient id="paint25_linear_54_1584" x1="6118.69" y1="462.292" x2="6393.69" y2="462.292" gradientUnits="userSpaceOnUse">
<stop stop-color="#CD7F32"/>
<stop offset="1" stop-color="#A67C52"/>
</linearGradient>
<linearGradient id="paint26_linear_54_1584" x1="9639.3" y1="1748.36" x2="10276.5" y2="1748.36" gradientUnits="userSpaceOnUse">
<stop stop-color="#CD7F32"/>
<stop offset="1" stop-color="#A67C52"/>
</linearGradient>
<linearGradient id="paint27_linear_54_1584" x1="9627.44" y1="1748.36" x2="10283.4" y2="1748.36" gradientUnits="userSpaceOnUse">
<stop stop-color="#CD7F32"/>
<stop offset="1" stop-color="#A67C52"/>
</linearGradient>
<linearGradient id="paint28_linear_54_1584" x1="-4151.85" y1="1748.36" x2="-4787.25" y2="1748.36" gradientUnits="userSpaceOnUse">
<stop stop-color="#CD7F32"/>
<stop offset="1" stop-color="#A67C52"/>
</linearGradient>
<linearGradient id="paint29_linear_54_1584" x1="188.821" y1="39.1229" x2="215.646" y2="39.1229" gradientUnits="userSpaceOnUse">
<stop stop-color="#CD7F32"/>
<stop offset="0.65" stop-color="#A67C52"/>
</linearGradient>
<linearGradient id="paint30_linear_54_1584" x1="17850.9" y1="209.201" x2="20550.8" y2="209.201" gradientUnits="userSpaceOnUse">
<stop stop-color="#CD7F32"/>
<stop offset="1" stop-color="#A67C52"/>
</linearGradient>
<linearGradient id="paint31_linear_54_1584" x1="1179.22" y1="450.967" x2="1185.71" y2="450.967" gradientUnits="userSpaceOnUse">
<stop stop-color="#D2A122"/>
<stop offset="1" stop-color="#FDD800"/>
</linearGradient>
<linearGradient id="paint32_linear_54_1584" x1="-2957.35" y1="1517.95" x2="-2131.12" y2="1517.95" gradientUnits="userSpaceOnUse">
<stop stop-color="#D19F1F"/>
<stop offset="1" stop-color="#FFDB7E"/>
</linearGradient>
<linearGradient id="paint33_linear_54_1584" x1="24.4321" y1="59.7207" x2="52.0879" y2="59.7207" gradientUnits="userSpaceOnUse">
<stop stop-color="#848482"/>
<stop offset="1" stop-color="#BEBEBE"/>
</linearGradient>
<linearGradient id="paint34_linear_54_1584" x1="2027.44" y1="530.317" x2="3700.66" y2="530.317" gradientUnits="userSpaceOnUse">
<stop stop-color="#848482"/>
<stop offset="1" stop-color="#BEBEBE"/>
</linearGradient>
<linearGradient id="paint35_linear_54_1584" x1="1739.14" y1="443.088" x2="2767.03" y2="443.088" gradientUnits="userSpaceOnUse">
<stop stop-color="#848482"/>
<stop offset="1" stop-color="#BEBEBE"/>
</linearGradient>
<linearGradient id="paint36_linear_54_1584" x1="1182.17" y1="1813.65" x2="1556.48" y2="1813.65" gradientUnits="userSpaceOnUse">
<stop stop-color="#848482"/>
<stop offset="1" stop-color="#BEBEBE"/>
</linearGradient>
<linearGradient id="paint37_linear_54_1584" x1="1488.23" y1="415.826" x2="2163.35" y2="415.826" gradientUnits="userSpaceOnUse">
<stop stop-color="#848482"/>
<stop offset="1" stop-color="#BEBEBE"/>
</linearGradient>
<linearGradient id="paint38_linear_54_1584" x1="147.583" y1="77.8881" x2="151.903" y2="77.8881" gradientUnits="userSpaceOnUse">
<stop offset="1" stop-color="#FDD800"/>
</linearGradient>
<linearGradient id="paint39_linear_54_1584" x1="978.887" y1="333.036" x2="1218.44" y2="333.036" gradientUnits="userSpaceOnUse">
<stop stop-color="#848482"/>
<stop offset="1" stop-color="#BEBEBE"/>
</linearGradient>
<linearGradient id="paint40_linear_54_1584" x1="1036.92" y1="365.013" x2="1311.92" y2="365.013" gradientUnits="userSpaceOnUse">
<stop stop-color="#848482"/>
<stop offset="1" stop-color="#BEBEBE"/>
</linearGradient>
<linearGradient id="paint41_linear_54_1584" x1="1988.44" y1="1241.96" x2="2625.47" y2="1241.96" gradientUnits="userSpaceOnUse">
<stop stop-color="#848482"/>
<stop offset="1" stop-color="#BEBEBE"/>
</linearGradient>
<linearGradient id="paint42_linear_54_1584" x1="1976.58" y1="1241.96" x2="2632.44" y2="1241.96" gradientUnits="userSpaceOnUse">
<stop stop-color="#848482"/>
<stop offset="1" stop-color="#BEBEBE"/>
</linearGradient>
<linearGradient id="paint43_linear_54_1584" x1="-11492" y1="1241.96" x2="-12127.7" y2="1241.96" gradientUnits="userSpaceOnUse">
<stop stop-color="#848482"/>
<stop offset="1" stop-color="#BEBEBE"/>
</linearGradient>
<linearGradient id="paint44_linear_54_1584" x1="24.8937" y1="28.3115" x2="51.7184" y2="28.3115" gradientUnits="userSpaceOnUse">
<stop stop-color="#BEBEBE"/>
<stop offset="1" stop-color="#848482"/>
</linearGradient>
<linearGradient id="paint45_linear_54_1584" x1="2277.81" y1="122.736" x2="4977.7" y2="122.736" gradientUnits="userSpaceOnUse">
<stop stop-color="#848482"/>
<stop offset="1" stop-color="#BEBEBE"/>
</linearGradient>
<linearGradient id="paint46_linear_54_1584" x1="259.594" y1="342.432" x2="266.088" y2="342.432" gradientUnits="userSpaceOnUse">
<stop stop-color="#D2A122"/>
<stop offset="1" stop-color="#FDD800"/>
</linearGradient>
<clipPath id="clip0_54_1584">
<rect width="242" height="116" fill="white"/>
</clipPath>
</defs>
</svg>
